<svg xmlns="http://www.w3.org/2000/svg" viewBox="0 0 64 64" shape-rendering="crispEdges" role="img" aria-label="black spaniel paddling in a rescue harness">
  <rect width="64" height="64" fill="#0e7490"/>
  <rect x="5" y="27" width="52" height="19" fill="#f8fafc"/>
  <rect x="5" y="27" width="12" height="19" fill="#ef4444"/>
  <rect x="45" y="27" width="12" height="19" fill="#ef4444"/>
  <rect x="16" y="32" width="31" height="9" fill="#0e7490"/>
  <rect x="12" y="22" width="31" height="20" fill="#1f2937"/>
  <rect x="38" y="17" width="16" height="19" fill="#1f2937"/>
  <rect x="47" y="24" width="12" height="7" fill="#4b5563"/>
  <rect x="39" y="18" width="5" height="17" fill="#111827"/>
  <rect x="49" y="19" width="5" height="18" fill="#111827"/>
  <rect x="19" y="21" width="8" height="22" fill="#f97316"/>
  <rect x="34" y="21" width="8" height="22" fill="#f97316"/>
  <rect x="22" y="27" width="15" height="7" fill="#fb923c"/>
  <rect x="51" y="23" width="3" height="3" fill="#f8fafc"/>
  <rect x="58" y="27" width="3" height="3" fill="#111827"/>
  <rect x="17" y="43" width="9" height="5" fill="#111827"/>
  <rect x="34" y="46" width="9" height="5" fill="#111827"/>
</svg>
